<svg id="Layer_1" data-name="Layer 1" xmlns="http://www.w3.org/2000/svg" viewBox="0 0 255.91 255.91"><title>social icon sashe</title><path d="M135.42,112.22c2.74-4.16,3.2-6.86-.72-11A17.5,17.5,0,0,0,135.42,112.22Z" transform="translate(-0.59 0.5)"/><path d="M67.27,89.81a2.28,2.28,0,0,0,2.39,1.06A3.86,3.86,0,0,0,72,89.37c2-2.55-.78-6.47-3.76-6.79-1.35-.14-1.56,2.65-1.38,4.84A8.1,8.1,0,0,0,67.27,89.81Z" transform="translate(-0.59 0.5)"/><path d="M44.12,135.09c-4.67,4.08-9.6,7.86-14.27,11.93-7,6.06-8.22,16.95-2.86,23.34,5.14,6.13,15.47,6.52,22.75.89,5.32-4.12,5.48-10.08,5.87-15.58a59.6,59.6,0,0,0-3.55-18.58C50.37,132.26,47.91,131.77,44.12,135.09Z" transform="translate(-0.59 0.5)"/><path d="M214.29,101.37c0.34-1-1-3-2.06-3.88-1.62-1.24-2.73.46-3.62,1.64-5.32,7-4.66,15.58-6.27,23.65C211.25,118.18,211.57,109.09,214.29,101.37Z" transform="translate(-0.59 0.5)"/><path d="M128.54-.5a128,128,0,1,0,128,128A128,128,0,0,0,128.54-.5ZM103,174.27c-5.64,1.43-11.56,1.81-17.38,2.45-2.44.27-5.53,0.31-5.86-2.85s2-5.25,5.09-5.53c6.11-.55,12.25-0.71,18.26-1,3.7,2.36,10.87-2.16,11,3.37C114.21,175.63,106.92,173.28,103,174.27ZM91,148.86l0,0.11-0.1,0,0-.05,0,0,0,0Zm35.47,59.63c-0.9,1.14-2.4,2.25-4,1-2.4-1.89-1.26-4,.34-5.55,6.6-6.45,9.79-15,14-22.86,8.74-16.53,10.25-32.86,2.48-49.55-0.42-.91-2.52-4.47-3.48-5.13-3.21,7.33-7.43,17.59-11.08,24.69-3.09,6-7.63,10.94-15.44,9.2-7.26-1.61-9.19-7.56-10.25-13.93-0.23-1.39-.27-2.82-0.44-4.63,0,0.38-4.09,3.38-4.57,3.86a69.29,69.29,0,0,1-5.84,5.54c-4.27,3.32-10.13,6-15.11,2.51-6.32-4.41-8.3-12.91-5-22.76,1.09-3.19,2.64-6.23,4.39-10.31-3.08,1-20.27,4.32-16.62,9.29,6.38,8.67,8.68,19,7.24,29.94-1.58,12-12,22.25-23.36,22.94a23.23,23.23,0,0,1-23.91-18A25.83,25.83,0,0,1,18,146.57c2.68-5.32,7.78-12,13-14.85,8.31-4.54,16.49-6.37,9.9-17.79-2.63-5.8-3.62-12.12-1.24-17.94C41.9,83.42,50.76,76.05,62.47,74.24a9.9,9.9,0,0,0,6.74-4C74.85,63.3,81.3,57,87.59,50.55c2.28-2.34,4.68-5,9.54-4-5.77,10-14.23,16.94-21,25.25-2.67,3.28-4.58,4.91-.28,8.69,5,4.38,3.55,10-.45,14.61-2.16,2.49-5.17,4.4-8.65,3-3.25-1.27-5.08-3.33-6.44-7.31-1-3-.37-5.88,1.06-8.69-15.08,5.16-18.88,19.39-10.82,38.41q13.69-5.22,27.38-10.43c7-2.65,14.05-4.91,21.47-5.77,2.1-.24,5.51-1.4,5.56,2.65,0,2.56-1,4.24-4.28,4.93C88,114.68,80,122.73,76.91,135.24c-0.85,3.42-2.34,7.94,1.78,10.14s7-1.4,9.24-4.25c5.21-6.55,10.09-13.36,15.17-20,2-2.61,3.88-7,7.7-4.91,3.15,1.77,1.81,6.18.93,9.4-1.63,6-4,11.77-3.37,18.14,0.28,2.67,0,6.13,3.12,7,2.52,0.73,4.68-1.67,5.95-3.72,4.89-7.89,9.43-16,14.28-23.91,2-3.27-.66-5.12-1.71-7.52-2.78-6.38-5.69-13,.92-18.66a8.36,8.36,0,0,1,11.19-.23c6.57,5.64,4.24,12.18.91,18.56-1.57,3-1.56,3-3.11,6,11.39,9.67,10.26,19.4,11.15,28.9C153.26,173.57,140.07,191.31,126.52,208.49Zm30.27-63.43c9.35-25.83,11.85-53,16.2-79.87,0.53-3.27-.58-8.57,5.54-7.37,5.43,1.07,2.66,5.44,2.33,8.36-1,8.91-2.38,17.78-3.66,26.66-1.09,7.54-4.57,13.13,6.5,17.08,2.84,1,3.07,8.1,3,11.67a32.25,32.25,0,0,0,.83,8.25c0.84,3.32,3.08,5.16,6.85,4.9,4.8-.33,3.51-5.81,2.95-9.24l0.14,2.06c-2.8-8.89-2.59-21.23,2.63-29.25,6.12-9.4,21.09-10.56,21.88,3.44,0.26,4.68-1.53,9.24-3.84,13.31-0.75,1.33-12.16,19.82-12.46,19.67,4.73,2.34,7.1,7.39,11.38,10.09,2,1.23,17.38,7.42,15.57,10.06-0.76,1.12-2.33,1.28-3.68,1.25a32,32,0,0,1-19.7-7.51c-3.5-3-6.29-9.82-11.56-8.87-10.36,1.86-17.63-3.87-18.27-14.68-0.31-5.21,0-8.69-4.61-12.26-3.51,10.65-4.4,20.8-8.47,30-1,2.25-1.39,4.8-3.53,6.34-1.57,1.13-3.25,1.69-5.19.66C155.22,148.56,156.17,146.75,156.78,145.05Zm78.65,31.7c-19.64-2.85-39-9.23-59-7.65-4.74.37-9.46,1.1-14.19,1.62-1.23.14-2.8,0.91-3.15-1.7s0.81-4,2.42-4.24c4.38-.65,8.79-1,12.89-1.45a444.22,444.22,0,0,1,61.18,10,11.32,11.32,0,0,1,7,4.22C240.12,179.06,237.79,177.1,235.43,176.76Z" transform="translate(-0.59 0.5)"/></svg>